<svg xmlns="http://www.w3.org/2000/svg" version="1.1" xmlns:xlink="http://www.w3.org/1999/xlink" xmlns:svgjs="http://svgjs.dev/svgjs" width="100%" height="100%" viewBox="0 0 1000 600"><rect width="1000" height="600" x="0" y="0" fill="#1e1e2e"/><g><rect width="333.3333333333333" height="333.3333333333333" rx="13.333333333333334" ry="13.333333333333334" y="177.30988035075364" fill="#45475a" transform="matrix(0.8059958535291442,0,0,0.8059958535291442,0,22.75633673727141)" x="155.087646484375"/><path d="M203.1724114684747 418.97655326759065L203.1724114684747 268.9765523487555L257.5782729017014 268.9765523487555Q279.918698570464 268.9765523487555 291.08891140484536 278.1897198078409Q302.22901584883755 287.4028872669263 302.22901584883755 307.12388297183145L302.22901584883755 307.12388297183145Q302.22901584883755 321.214609673962 297.35145660579235 329.1331163463132Q292.47389736274715 337.02151462827527 282.95964599977003 341.59798996742876L282.95964599977003 341.59798996742876Q306.8054911879911 349.8175805436717 306.8054911879911 376.91513189392293L306.8054911879911 376.91513189392293Q306.8054911879911 399.46631629540974 294.88256859388053 409.22143478150025Q282.95964599977003 418.97655326759065 260.40846159828317 418.97655326759065L260.40846159828317 418.97655326759065L203.1724114684747 418.97655326759065ZM258.6621749557114 350.0283392763959L258.6621749557114 350.0283392763959L219.85245974407383 350.0283392763959L219.85245974407383 404.2234419768983L259.7460770097215 404.2234419768983Q274.4991883004138 404.2234419768983 282.17682784965166 398.0512219471189Q289.88457578927864 391.8790019173394 289.88457578927864 376.28285569575036L289.88457578927864 376.28285569575036Q289.88457578927864 368.0331567291184 286.7533031888052 362.402887726344Q283.59192219794255 356.77261872356945 278.3831706606165 354.363947492436L278.3831706606165 354.363947492436Q268.86891929763937 350.0283392763959 258.6621749557114 350.0283392763959ZM256.94599670352886 283.6995552490587L256.94599670352886 283.6995552490587L219.85245974407383 283.6995552490587L219.85245974407383 335.51609510881684L258.45141622298723 335.51609510881684Q272.33138419239367 335.51609510881684 278.7143629548973 328.89224922319994Q285.12745010779014 322.2985117279721 285.12745010779014 308.96049478557063Q285.12745010779014 295.62247784316924 278.29284548944895 289.66101654611396Q271.4582408711078 283.6995552490587 256.94599670352886 283.6995552490587ZM336.7031228444349 418.97655326759065L336.7031228444349 268.9765523487555L391.10898427766165 268.9765523487555Q413.4494099464243 268.9765523487555 424.6196227808057 278.1897198078409Q435.789835615187 287.4028872669263 435.789835615187 307.12388297183145L435.789835615187 307.12388297183145Q435.789835615187 321.214609673962 430.9122763721417 329.1331163463132Q426.0347171290965 337.02151462827527 416.49035737573024 341.59798996742876L416.49035737573024 341.59798996742876Q440.33620256395136 349.8175805436717 440.33620256395136 376.91513189392293L440.33620256395136 376.91513189392293Q440.33620256395136 399.46631629540974 428.4132799698408 409.22143478150025Q416.49035737573024 418.97655326759065 393.93917297424343 418.97655326759065L393.93917297424343 418.97655326759065L336.7031228444349 418.97655326759065ZM392.1928863316717 350.0283392763959L392.1928863316717 350.0283392763959L353.4132795104232 350.0283392763959L353.4132795104232 404.2234419768983L393.2767883856817 404.2234419768983Q408.02989967637404 404.2234419768983 415.737647616001 398.0512219471189Q423.4152871652389 391.8790019173394 423.4152871652389 376.28285569575036L423.4152871652389 376.28285569575036Q423.4152871652389 368.0331567291184 420.28401456476547 362.402887726344Q417.1226335739028 356.77261872356945 411.9439904269659 354.363947492436L411.9439904269659 354.363947492436Q402.39963067359963 350.0283392763959 392.1928863316717 350.0283392763959ZM390.4767080794891 283.6995552490587L390.4767080794891 283.6995552490587L353.4132795104232 283.6995552490587L353.4132795104232 335.51609510881684L391.9821275989475 335.51609510881684Q405.86209556835394 335.51609510881684 412.2450743308576 328.89224922319994Q418.6581614837503 322.2985117279721 418.6581614837503 308.96049478557063Q418.6581614837503 295.62247784316924 411.8235568654092 289.66101654611396Q404.9889522470681 283.6995552490587 390.4767080794891 283.6995552490587Z " fill="#74c7ec" transform="matrix(0.8059958535291442,0,0,0.8059958535291442,0,22.75633673727141)"/><path d="M571.7543129291976 381.2760058755917L571.7543129291976 270.2688878280637L612.0172318998686 270.2688878280637Q628.5502069282238 270.2688878280637 636.8166944424015 277.08706890444745Q645.0609003190746 283.9052499808312 645.0609003190746 298.49972254629296L645.0609003190746 298.49972254629296Q645.0609003190746 308.92752889840915 641.451275043342 314.7875995620985Q637.8416497676095 320.6253885882832 630.8006523161805 324.01219748897046L630.8006523161805 324.01219748897046Q648.4477092197619 330.09508452770496 648.4477092197619 350.1485582817747L648.4477092197619 350.1485582817747Q648.4477092197619 366.8375047726616 639.6241807679712 374.05675532412664Q630.8006523161805 381.2760058755917 614.1117058252937 381.2760058755917L614.1117058252937 381.2760058755917L571.7543129291976 381.2760058755917ZM612.8193708500314 330.2510559902366L612.8193708500314 330.2510559902366L584.0983401067027 330.2510559902366L584.0983401067027 370.35800349837604L613.6215098001942 370.35800349837604Q624.53951217741 370.35800349837604 630.221329741063 365.79026780994906Q635.9254289422206 361.2225321215221 635.9254289422206 349.6806438941797L635.9254289422206 349.6806438941797Q635.9254289422206 343.57547521794066 633.6081386417503 339.40880900459507Q631.2685667037755 335.2421427912495 627.4138434154933 333.4596117908878L627.4138434154933 333.4596117908878Q620.3728459640643 330.2510559902366 612.8193708500314 330.2510559902366ZM611.5493175122737 281.16460856777496L611.5493175122737 281.16460856777496L584.0983401067027 281.16460856777496L584.0983401067027 319.5113067130571L612.6633993874998 319.5113067130571Q622.9352342770844 319.5113067130571 627.6589414280429 314.6093464620623Q632.4049302165062 309.72966784857203 632.4049302165062 299.8589024340688Q632.4049302165062 289.9881370195656 627.3469985029797 285.57637279367026Q622.2890667894533 281.16460856777496 611.5493175122737 281.16460856777496ZM664.9584026106127 341.0130869049207Q664.9584026106127 319.02111068795756 672.8238206497089 309.2394718234725Q680.6892386888051 299.4578329589874 699.3835325550989 299.4578329589874Q718.0555447838883 299.4578329589874 725.8541179104709 309.2394718234725Q733.6304093995491 319.02111068795756 733.6304093995491 341.0130869049207Q733.6304093995491 362.98278148437925 726.2551873855523 372.9426734489005Q718.8576837340511 382.88028377591735 699.2944060050809 382.88028377591735Q679.7311282761107 382.88028377591735 672.3336246246093 372.9426734489005Q664.9584026106127 362.98278148437925 664.9584026106127 341.0130869049207ZM677.3247114256222 340.76798889237097Q677.3247114256222 358.32591924593424 681.5582225514814 365.3891983348677Q685.814015314845 372.4524774238011 699.3835325550989 372.4524774238011Q712.9307681578482 372.4524774238011 717.0974343711938 365.4783248848857Q721.2641005845394 358.5041723459704 721.2641005845394 340.8571154423891Q721.2641005845394 323.2100585388077 716.6295199835988 316.54784892495564Q711.9726577451538 309.88563931110366 699.3835325550989 309.88563931110366Q686.7721257275396 309.88563931110366 682.0484185765808 316.54784892495564Q677.3247114256222 323.2100585388077 677.3247114256222 340.76798889237097ZM765.2257713809611 381.2760058755917L753.1936871285193 381.2760058755917L753.1936871285193 301.06211085931295L765.0697999184295 301.06211085931295L765.0697999184295 311.98011323652867Q779.0181049962601 302.35444583457524 794.4369981493892 299.3018614964558L794.4369981493892 299.3018614964558L794.4369981493892 311.4899172114292Q787.6856619855191 312.78225218669144 780.3995665215405 315.5006119622431Q773.0911894200573 318.2189717377948 769.236466131775 320.31344566321985L769.236466131775 320.31344566321985L765.2257713809611 322.4079195886449L765.2257713809611 381.2760058755917ZM838.5546404083426 418.9765365332427L838.5546404083426 418.9765365332427Q819.3033056044356 418.9765365332427 811.6829855778892 413.7626333571846Q804.0626655513427 408.5487301811265 804.0626655513427 394.7563965658275L804.0626655513427 394.7563965658275Q804.0626655513427 388.1833135019935 806.9369967894261 384.0834922011615Q809.8336096650139 379.9836709003295 816.7186356539112 374.8588942742894L816.7186356539112 374.8588942742894Q812.2400265155022 371.80630993616995 812.2400265155022 363.784920434542L812.2400265155022 363.784920434542Q812.2400265155022 361.06656065899034 816.2507212663162 353.69133864499366L816.2507212663162 353.69133864499366L817.6990277041101 351.1066686944691Q805.0207759640372 345.33572458079794 805.0207759640372 326.88652872705387L805.0207759640372 326.88652872705387Q805.0207759640372 299.4578329589874 835.0118600451235 299.4578329589874L835.0118600451235 299.4578329589874Q842.7213066216882 299.4578329589874 849.2943896855221 301.06211085931295L849.2943896855221 301.06211085931295L851.7008065360105 301.5523068844125L875.4530321158309 300.9061393967813L875.4530321158309 311.17797428636595L860.2123920627379 310.84374972379806Q865.4931401513095 316.14677944987426 865.4931401513095 326.88652872705387L865.4931401513095 326.88652872705387Q865.4931401513095 341.9711973176151 858.0287915872947 347.987239443836Q850.5867246607844 354.0032815700569 834.5439456575286 354.0032815700569L834.5439456575286 354.0032815700569Q830.1990263441469 354.0032815700569 826.6785276184324 353.35711408242577L826.6785276184324 353.35711408242577Q823.7819147428446 360.4203931713593 823.7819147428446 362.51486709678426L823.7819147428446 362.51486709678426Q823.7819147428446 367.48367226029274 826.8344990809641 368.6868806855369Q829.8870834190836 369.89008911078105 845.2836949347081 369.89008911078105Q860.6803064503329 369.89008911078105 867.4316426142029 374.7029228117578Q874.1606971405686 379.5157565127345 874.1606971405686 393.4640615905652L874.1606971405686 393.4640615905652Q874.1606971405686 418.9765365332427 838.5546404083426 418.9765365332427ZM815.9164967037484 393.798286153133L815.9164967037484 393.798286153133Q815.9164967037484 402.2875900423558 820.6624854922115 405.58527239302504Q825.3861926431701 408.86067310618984 838.1535709332611 408.86067310618984Q850.8986675858478 408.86067310618984 856.424513686969 405.3401743804754Q861.9726414255952 401.81967565476094 861.9726414255952 393.55318814058325Q861.9726414255952 385.28670062640566 857.9619466747811 382.88028377591735Q853.9512519239672 380.4738669254289 842.2311105965887 380.4738669254289L842.2311105965887 380.4738669254289L824.9182782555752 379.67172797526615Q819.615248529499 383.5264512635485 817.7658726166237 386.4007825016318Q815.9164967037484 389.29739537721963 815.9164967037484 393.798286153133ZM817.052860216479 326.88652872705387Q817.052860216479 336.3562246664756 821.3086529798427 340.3669194172896Q825.5421641057018 344.37761416810355 835.3460846076914 344.37761416810355Q845.1277234721765 344.37761416810355 849.2943896855221 340.3669194172896Q853.4610558988677 336.3562246664756 853.4610558988677 326.81968381454027Q853.4610558988677 317.2608613251004 849.2943896855221 313.2501665742864Q845.1277234721765 309.2394718234725 835.3460846076914 309.2394718234725Q825.5421641057018 309.2394718234725 821.3086529798427 313.33929312430456Q817.052860216479 317.416832787632 817.052860216479 326.88652872705387ZM892.1196969692132 381.2760058755917L892.1196969692132 270.2688878280637L932.4048975773887 270.2688878280637Q948.9155909682395 270.2688878280637 957.1820784824171 277.08706890444745Q965.4485659965947 283.9052499808312 965.4485659965947 298.49972254629296L965.4485659965947 298.49972254629296Q965.4485659965947 308.92752889840915 961.8389407208622 314.7875995620985Q958.2293154451296 320.6253885882832 951.1660363561962 324.01219748897046L951.1660363561962 324.01219748897046Q968.8130932597775 330.09508452770496 968.8130932597775 350.1485582817747L968.8130932597775 350.1485582817747Q968.8130932597775 366.8375047726616 959.9895648079869 374.05675532412664Q951.1660363561962 381.2760058755917 934.4770898653093 381.2760058755917L934.4770898653093 381.2760058755917L892.1196969692132 381.2760058755917ZM933.2070365275515 330.2510559902366L933.2070365275515 330.2510559902366L904.4860057842228 330.2510559902366L904.4860057842228 370.35800349837604L934.0091754777143 370.35800349837604Q944.9048962174255 370.35800349837604 950.6089954185832 365.79026780994906Q956.2908129822362 361.2225321215221 956.2908129822362 349.6806438941797L956.2908129822362 349.6806438941797Q956.2908129822362 343.57547521794066 953.9735226817659 339.40880900459507Q951.6562323812957 335.2421427912495 947.8015090930134 333.4596117908878L947.8015090930134 333.4596117908878Q940.7382300040799 330.2510559902366 933.2070365275515 330.2510559902366ZM931.9147015522892 281.16460856777496L931.9147015522892 281.16460856777496L904.4860057842228 281.16460856777496L904.4860057842228 319.5113067130571L933.0287834275154 319.5113067130571Q943.3006183171 319.5113067130571 948.0466071055631 314.6093464620623Q952.7703142565217 309.72966784857203 952.7703142565217 299.8589024340688Q952.7703142565217 289.9881370195656 947.7123825429952 285.57637279367026Q942.6544508294688 281.16460856777496 931.9147015522892 281.16460856777496ZM985.3460682881328 341.0130869049207Q985.3460682881328 319.02111068795756 993.1892046897244 309.2394718234725Q1001.0546227288206 299.4578329589874 1019.7489165951145 299.4578329589874Q1038.4432104614084 299.4578329589874 1046.2195019504866 309.2394718234725Q1053.9957934395647 319.02111068795756 1053.9957934395647 341.0130869049207Q1053.9957934395647 362.98278148437925 1046.620571425568 372.9426734489005Q1039.2453494115712 382.88028377591735 1019.6597900450964 382.88028377591735Q1000.0965123161263 382.88028377591735 992.7212903021295 372.9426734489005Q985.3460682881328 362.98278148437925 985.3460682881328 341.0130869049207ZM997.6900954656378 340.76798889237097Q997.6900954656378 358.32591924593424 1001.9458882290015 365.3891983348677Q1006.2016809923653 372.4524774238011 1019.7489165951145 372.4524774238011Q1033.2961521978639 372.4524774238011 1037.485100048714 365.4783248848857Q1041.6517662620595 358.5041723459704 1041.6517662620595 340.8571154423891Q1041.6517662620595 323.2100585388077 1036.9949040236145 316.54784892495564Q1032.3380417851695 309.88563931110366 1019.7489165951145 309.88563931110366Q1007.1597914050597 309.88563931110366 1002.4138026165965 316.54784892495564Q997.6900954656378 323.2100585388077 997.6900954656378 340.76798889237097ZM1085.6134370584812 381.2760058755917L1073.5813528060394 381.2760058755917L1073.5813528060394 301.06211085931295L1085.6134370584812 301.06211085931295L1085.6134370584812 381.2760058755917ZM1085.6134370584812 282.92485793063213L1073.5813528060394 282.92485793063213L1073.5813528060394 268.97655285280143L1085.6134370584812 268.97655285280143L1085.6134370584812 282.92485793063213Z " fill="#cba6f7" transform="matrix(0.8059958535291442,0,0,0.8059958535291442,0,22.75633673727141)"/></g></svg>